#!OML:ASF E:\emotionWalksFemale\Project 1\Capture day 1\Session 1\Female1.ASF
:FULLY-SPECIFIED
:DEGREES
1578
root 9.04435 15.0982 -37.5575 -3.32063 8.1785 -1.17986
lowerback 3.72478 1.65022 -1.36476
upperback -3.67534 2.1033 -0.356662
thorax -5.939 1.09109 0.207801
lowerneck -11.7887 -5.62808 -5.45904
upperneck 30.7799 -9.59025 8.6241
head 12.9299 -3.80361 2.86444
rclavicle -3.36443e-014 -1.59028e-014
rhumerus -47.5865 23.2427 -103.741
rradius 31.571
rwrist 14.2808
rhand -5.2363 -51.7637
rfingers 7.12502
rthumb 20.5664 -80.6943
lclavicle -3.36443e-014 -1.59028e-014
lhumerus -43.3614 -4.8763 88.7307
lradius 33.5359
lwrist -18.7603
lhand -1.95325 -31.0979
lfingers 7.12502
lthumb 23.7182 -2.5414
rfemur 2.2622 12.6365 33.0979
rtibia 26.7754
rfoot -26.9997 -31.2231
rtoes 6.00728
lfemur -13.223 -15.982 -20.7749
ltibia 38.2729
lfoot -25.5102 -1.42622
ltoes -25.1477
1579
root 9.01616 15.099 -37.582 -3.02815 8.8039 -1.20879
lowerback 4.26388 1.38326 -1.47513
upperback -4.03388 1.72659 -0.356631
thorax -6.62618 0.913429 0.282582
lowerneck -11.7671 -5.58086 -5.51341
upperneck 30.9365 -9.56848 8.7544
head 13.0007 -3.78152 2.93289
rclavicle 7.7526e-015 -2.46493e-014
rhumerus -47.8713 23.3212 -104.011
rradius 31.6415
rwrist 13.9895
rhand -6.85711 -50.9111
rfingers 7.12502
rthumb 19.0082 -80.0023
lclavicle 7.7526e-015 -2.46493e-014
lhumerus -43.6174 -4.99784 88.6998
lradius 33.6742
lwrist -18.4139
lhand -2.96682 -31.7582
lfingers 7.12502
lthumb 22.7458 -3.07903
rfemur 1.81192 12.4804 33.1977
rtibia 26.8176
rfoot -27.0814 -31.5389
rtoes 6.40269
lfemur -13.8772 -15.9451 -20.4732
ltibia 38.3836
lfoot -25.3669 -2.04275
ltoes -25.2826
1580
root 9.00685 15.0923 -37.5766 -3.21356 8.74763 -1.21656
lowerback 4.69389 1.37869 -1.3336
upperback -4.12469 1.71831 -0.42915
thorax -6.96443 0.901405 0.115532
lowerneck -11.8118 -5.60152 -5.47932
upperneck 31.1081 -9.65432 8.83692
head 13.0952 -3.80001 2.94912
rclavicle 3.97569e-016 6.75868e-015
rhumerus -48.0641 23.1596 -104.155
rradius 31.6382
rwrist 14.2078
rhand -6.22669 -51.5298
rfingers 7.12502
rthumb 19.6144 -80.5603
lclavicle 3.97569e-016 6.75868e-015
lhumerus -43.7767 -5.232 88.6689
lradius 33.7836
lwrist -18.1504
lhand -3.87111 -32.364
lfingers 7.12502
lthumb 21.8777 -3.58083
rfemur 2.02913 12.5107 33.2976
rtibia 26.8441
rfoot -27.2857 -31.3704
rtoes 7.59094
lfemur -13.7173 -15.8798 -20.4794
ltibia 38.4895
lfoot -25.5258 -1.88178
ltoes -25.8675
1581
root 8.99762 15.0899 -37.5709 -3.24902 8.7282 -1.25436
lowerback 4.44829 1.38372 -1.37846
upperback -3.92363 1.73332 -0.328035
thorax -6.61347 0.912079 0.254749
lowerneck -12.1327 -5.63612 -5.49723
upperneck 31.1126 -9.69283 8.83755
head 13.1717 -3.80836 2.93856
rclavicle -3.3694e-014 -1.35174e-014
rhumerus -47.585 23.0876 -103.66
rradius 31.5061
rwrist 14.394
rhand -3.80204 -52.9155
rfingers 7.12502
rthumb 21.9441 -81.6909
lclavicle -3.3694e-014 -1.35174e-014
lhumerus -43.39 -5.20726 88.7585
lradius 33.7756
lwrist -18.1245
lhand -4.18141 -32.467
lfingers 7.12502
lthumb 21.5797 -3.64936
rfemur 2.06606 12.5333 33.3835
rtibia 26.871
rfoot -27.4674 -31.2194
rtoes 8.87293
lfemur -13.7453 -15.7855 -20.4005
ltibia 38.5908
lfoot -25.5133 -1.85182
ltoes -26.2546
1582
root 8.98869 15.0885 -37.5679 -3.3069 8.75974 -1.28052
lowerback 4.32927 1.34957 -1.4542
upperback -3.76929 1.69204 -0.208374
thorax -6.38665 0.896836 0.43169
lowerneck -12.3975 -5.61776 -5.55683
upperneck 31.1005 -9.66146 8.89808
head 13.2285 -3.78554 2.97132
rclavicle 1.39149e-015 -1.59028e-015
rhumerus -47.3402 23.3595 -103.544
rradius 31.4534
rwrist 13.4637
rhand -4.51651 -52.604
rfingers 7.12502
rthumb 21.2579 -81.4582
lclavicle 1.39149e-015 -1.59028e-015
lhumerus -43.1082 -5.09504 88.8248
lradius 33.7814
lwrist -18.0512
lhand -4.84623 -32.9639
lfingers 7.12502
lthumb 20.9411 -4.07435
rfemur 2.11795 12.4803 33.4503
rtibia 26.8979
rfoot -27.4117 -31.2169
rtoes 8.68113
lfemur -13.7357 -15.727 -20.3553
ltibia 38.6823
lfoot -25.3356 -2.13468
ltoes -25.2886
1583
root 8.98227 15.0847 -37.5605 -3.40704 8.61871 -1.30817
lowerback 4.15669 1.37839 -1.49479
upperback -3.6085 1.73797 -0.0955958
thorax -6.12323 0.922246 0.574317
lowerneck -12.5058 -5.62398 -5.63999
upperneck 31.0705 -9.66126 8.95386
head 13.2477 -3.78531 3.00458
rclavicle 1.44616e-014 -2.42517e-014
rhumerus -47.4312 23.8999 -103.841
rradius 31.4344
rwrist 12.208
rhand -7.27037 -51.7446
rfingers 7.12502
rthumb 18.6108 -80.8743
lclavicle 1.44616e-014 -2.42517e-014
lhumerus -42.917 -5.11971 88.937
lradius 33.8852
lwrist -17.8966
lhand -5.89426 -33.3758
lfingers 7.12502
lthumb 19.934 -4.3782
rfemur 2.224 12.4595 33.5077
rtibia 26.9414
rfoot -27.369 -31.0856
rtoes 8.24819
lfemur -13.6181 -15.6557 -20.3393
ltibia 38.7733
lfoot -25.4269 -2.12872
ltoes -24.959
1584
root 8.97548 15.0795 -37.5535 -3.44268 8.4916 -1.36319
lowerback 4.15376 1.40625 -1.25255
upperback -3.62175 1.78755 -0.176246
thorax -6.12586 0.93433 0.350098
lowerneck -12.4374 -5.66453 -5.62366
upperneck 31.0984 -9.78589 9.1126
head 13.2675 -3.82003 3.04698
rclavicle 2.14687e-014 2.0276e-014
rhumerus -47.4018 23.5013 -103.782
rradius 31.297
rwrist 13.1348
rhand -7.33015 -51.6497
rfingers 7.12502
rthumb 18.5533 -80.7849
lclavicle 2.14687e-014 2.0276e-014
lhumerus -42.997 -5.47381 88.8632
lradius 34.1049
lwrist -17.7105
lhand -6.62585 -33.6367
lfingers 7.12502
lthumb 19.2306 -4.56749
rfemur 2.23131 12.4136 33.5638
rtibia 26.98
rfoot -27.4691 -30.8924
rtoes 8.43482
lfemur -13.6142 -15.6676 -20.2763
ltibia 38.889
lfoot -25.6904 -1.62516
ltoes -26.3536
1585
root 8.96494 15.0758 -37.5487 -3.37986 8.43534 -1.3872
lowerback 4.08627 1.4363 -1.23281
upperback -3.65363 1.82962 -0.183509
thorax -6.12054 0.954291 0.328771
lowerneck -12.3385 -5.72601 -5.66316
upperneck 31.0258 -9.92312 9.291
head 13.2438 -3.8677 3.10286
rclavicle 3.91109e-014 4.37326e-015
rhumerus -47.1039 22.8399 -103.18
rradius 31.2068
rwrist 15.0607
rhand -5.48654 -52.167
rfingers 7.12502
rthumb 20.3259 -81.1233
lclavicle 3.91109e-014 4.37326e-015
lhumerus -42.9889 -5.67713 88.8386
lradius 34.1733
lwrist -17.7152
lhand -6.97412 -34.1598
lfingers 7.12502
lthumb 18.8957 -5.05762
rfemur 2.1423 12.344 33.5955
rtibia 27.0075
rfoot -27.5559 -30.7594
rtoes 8.4669
lfemur -13.7461 -15.5683 -20.1744
ltibia 39.0319
lfoot -25.7726 -1.54042
ltoes -27.1453
1586
root 8.95222 15.0752 -37.5464 -3.32939 8.45628 -1.42547
lowerback 4.17093 1.40507 -1.22793
upperback -3.72356 1.78803 -0.158765
thorax -6.24308 0.934739 0.35221
lowerneck -12.4652 -5.70853 -5.74896
upperneck 31.143 -9.95464 9.49764
head 13.3446 -3.85855 3.19558
rclavicle 1.26228e-014 -7.95139e-015
rhumerus -47.0467 22.5889 -102.948
rradius 31.2061
rwrist 15.9276
rhand -4.46962 -52.652
rfingers 7.12502
rthumb 21.3029 -81.5011
lclavicle 1.26228e-014 -7.95139e-015
lhumerus -42.9902 -5.64077 88.7476
lradius 34.1882
lwrist -17.8453
lhand -7.16493 -34.8747
lfingers 7.12502
lthumb 18.7122 -5.75474
rfemur 2.04842 12.2418 33.6569
rtibia 27.0581
rfoot -27.4952 -30.7358
rtoes 8.07445
lfemur -13.8774 -15.4379 -20.0432
ltibia 39.1804
lfoot -25.6962 -1.95077
ltoes -26.1621
1587
root 8.94255 15.0715 -37.5486 -3.41974 8.54088 -1.49768
lowerback 4.50234 1.34758 -1.14004
upperback -3.79244 1.7155 -0.1078
thorax -6.50447 0.896923 0.353467
lowerneck -12.7464 -5.68699 -5.85866
upperneck 31.4182 -9.96645 9.64255
head 13.5435 -3.84208 3.27303
rclavicle -1.32192e-014 1.47101e-014
rhumerus -47.2738 22.5979 -103.047
rradius 31.2864
rwrist 15.4797
rhand -5.14192 -52.4597
rfingers 7.12502
rthumb 20.6571 -81.3804
lclavicle -1.32192e-014 1.47101e-014
lhumerus -43.0408 -5.57558 88.7202
lradius 34.2614
lwrist -17.9404
lhand -7.36202 -35.0485
lfingers 7.12502
lthumb 18.5226 -5.91039
rfemur 2.07048 12.0894 33.762
rtibia 27.1039
rfoot -27.3502 -30.7712
rtoes 7.48358
lfemur -13.8973 -15.4224 -19.9452
ltibia 39.3213
lfoot -25.6347 -2.11059
ltoes -25.666
1588
root 8.93903 15.0653 -37.5535 -3.55134 8.7104 -1.54501
lowerback 4.87852 1.27363 -0.99914
upperback -3.84225 1.62535 -0.0605628
thorax -6.77012 0.847564 0.323188
lowerneck -12.9667 -5.69307 -5.97247
upperneck 31.627 -9.987 9.71296
head 13.6976 -3.84309 3.31976
rclavicle -3.29486e-014 1.11319e-014
rhumerus -47.5903 23.0224 -103.41
rradius 31.3627
rwrist 14.1393
rhand -6.88661 -52.0547
rfingers 7.12502
rthumb 18.9799 -81.1487
lclavicle -3.29486e-014 1.11319e-014
lhumerus -43.0784 -5.5389 88.7759
lradius 34.3397
lwrist -17.9433
lhand -7.83365 -34.6806
lfingers 7.12502
lthumb 18.0689 -5.49991
rfemur 2.13236 11.8319 33.8014
rtibia 27.1121
rfoot -27.3226 -30.6981
rtoes 7.30302
lfemur -13.9214 -15.4769 -19.9135
ltibia 39.4587
lfoot -25.5523 -2.13254
ltoes -26.4683
1589
root 8.92918 15.0603 -37.5521 -3.71983 8.6847 -1.60823
lowerback 5.4013 1.2194 -0.817386
upperback -3.97821 1.56095 -0.077104
thorax -7.2109 0.807126 0.19694
lowerneck -12.999 -5.65488 -6.05932
upperneck 31.7867 -9.97861 9.86559
head 13.7903 -3.82619 3.40324
rclavicle -3.27995e-015 6.75868e-015
rhumerus -47.8716 23.3538 -103.843
rradius 31.3119
rwrist 13.8808
rhand -8.06794 -51.5454
rfingers 7.12502
rthumb 17.8435 -80.7468
lclavicle -3.27995e-015 6.75868e-015
lhumerus -43.3735 -5.54703 88.6613
lradius 34.5531
lwrist -17.8363
lhand -8.14047 -34.7171
lfingers 7.12502
lthumb 17.7737 -5.50932
rfemur 2.30637 11.7664 33.9297
rtibia 27.1069
rfoot -27.2794 -30.6359
rtoes 7.47617
lfemur -13.8273 -15.3352 -19.8384
ltibia 39.5979
lfoot -25.5404 -2.20093
ltoes -27.1618
1590
root 8.91886 15.0614 -37.5487 -3.58759 8.76974 -1.6869
lowerback 5.06284 1.18077 -0.830667
upperback -3.86902 1.51819 0.0286122
thorax -6.90124 0.789291 0.328959
lowerneck -12.9992 -5.68935 -6.19508
upperneck 31.587 -10.0223 10.0171
head 13.7266 -3.84716 3.47445
rclavicle 3.47873e-016 9.54166e-015
rhumerus -47.4608 23.3472 -103.415
rradius 31.2576
rwrist 15.0941
rhand -7.11332 -51.9421
rfingers 7.12502
rthumb 18.7618 -81.0573
lclavicle 3.47873e-016 9.54166e-015
lhumerus -43.1528 -5.48589 88.6992
lradius 34.6683
lwrist -17.8429
lhand -8.29158 -35.2126
lfingers 7.12502
lthumb 17.6283 -5.99172
rfemur 2.15334 11.8004 34.0419
rtibia 27.0981
rfoot -27.0889 -30.7279
rtoes 7.42399
lfemur -14.0737 -15.2628 -19.656
ltibia 39.7188
lfoot -25.4752 -2.27184
ltoes -27.3816
1591
root 8.90775 15.0609 -37.546 -3.54773 8.87691 -1.68793
lowerback 4.84623 1.20215 -0.906154
upperback -3.76823 1.54372 0.0415561
thorax -6.6718 0.805224 0.38821
lowerneck -13.088 -5.76113 -6.20866
upperneck 31.5324 -10.1897 10.2298
head 13.7585 -3.89246 3.53146
rclavicle 3.94588e-014 1.59028e-015
rhumerus -46.9706 22.8247 -102.834
rradius 31.3229
rwrist 15.596
rhand -4.61544 -52.9977
rfingers 7.12502
rthumb 21.1629 -81.8626
lclavicle 3.94588e-014 1.59028e-015
lhumerus -42.8476 -5.50339 88.6655
lradius 34.584
lwrist -18.0043
lhand -8.64671 -35.4979
lfingers 7.12502
lthumb 17.2865 -6.2467
rfemur 2.1546 11.9335 34.1378
rtibia 27.0373
rfoot -27.0453 -30.8746
rtoes 7.60406
lfemur -14.1984 -15.2484 -19.5907
ltibia 39.8459
lfoot -25.4032 -2.43552
ltoes -26.7293
